<svg width="22" height="22" viewBox="0 0 22 22" fill="none" xmlns="http://www.w3.org/2000/svg">
<path d="M19.2761 12.4258C18.7939 12.0571 18.5602 11.4571 18.5602 10.8501C18.5602 10.2461 18.7876 9.64206 19.2692 9.27746L20.6591 8.2251C20.7528 8.14999 20.8168 8.04562 20.8402 7.92975C20.8637 7.81389 20.8451 7.69371 20.7876 7.58968L18.7316 4.13135C18.671 4.02673 18.5744 3.94632 18.4588 3.90438C18.3431 3.86244 18.216 3.86166 18.0998 3.90218L16.449 4.54719C15.8835 4.76813 15.2559 4.67178 14.7294 4.3695C14.181 4.0546 13.7494 3.53718 13.6583 2.91138L13.4201 1.27718C13.4012 1.15794 13.3389 1.04927 13.2446 0.970909C13.1503 0.892544 13.0302 0.849679 12.9061 0.850101H8.79406C8.53705 0.850101 8.33359 1.02718 8.29076 1.27718L8.0529 2.90968C7.96156 3.53653 7.52465 4.05813 6.97578 4.3744C6.45059 4.67704 5.82831 4.76849 5.26372 4.5479L3.61113 3.90218C3.37554 3.81885 3.10782 3.90218 2.97932 4.13135L0.933992 7.58968C0.805489 7.80843 0.848323 8.07927 1.06249 8.2251L2.45098 9.27634C2.93346 9.64163 3.13995 10.2449 3.13995 10.8501C3.13995 11.4541 2.91262 12.0581 2.43106 12.4227L1.04108 13.4751C0.947403 13.5502 0.883398 13.6546 0.859966 13.7704C0.836535 13.8863 0.855127 14.0065 0.912575 14.1105L2.96861 17.5688C3.09712 17.798 3.36483 17.8709 3.60042 17.798L5.25122 17.153C5.81667 16.9321 6.44429 17.0284 6.97076 17.3307C7.5192 17.6456 7.95076 18.163 8.04194 18.7888L8.28005 20.423C8.33359 20.673 8.53705 20.8501 8.79406 20.8501H12.9061C13.1631 20.8501 13.3773 20.673 13.4094 20.423L13.6483 18.7834C13.739 18.1609 14.1716 17.6453 14.7179 17.3335C15.2476 17.0313 15.8757 16.9332 16.4437 17.1551L18.0891 17.798C18.3247 17.8813 18.5924 17.798 18.7209 17.5688L20.7769 14.1105C20.9054 13.8813 20.8519 13.6209 20.6484 13.4751L19.2761 12.4258ZM10.8501 14.6001C8.72981 14.6001 6.99502 12.9126 6.99502 10.8501C6.99502 8.7876 8.72981 7.1001 10.8501 7.1001C12.9704 7.1001 14.7052 8.7876 14.7052 10.8501C14.7052 12.9126 12.9704 14.6001 10.8501 14.6001Z" stroke="#E1E1E1" stroke-width="1.7"/>
</svg>
